<svg width="1280" height="420" viewBox="0 0 1280 420" fill="none" xmlns="http://www.w3.org/2000/svg">
  <defs>
    <radialGradient id="g1" cx="50%" cy="20%" r="80%">
      <stop offset="0" stop-color="#7C3AED" stop-opacity="0.55"/>
      <stop offset="0.45" stop-color="#0EA5E9" stop-opacity="0.22"/>
      <stop offset="1" stop-color="#020617" stop-opacity="1"/>
    </radialGradient>
    <linearGradient id="line" x1="0" y1="0" x2="1280" y2="420">
      <stop stop-color="#22D3EE"/>
      <stop offset="0.5" stop-color="#A855F7"/>
      <stop offset="1" stop-color="#10B981"/>
    </linearGradient>
    <filter id="glow" x="-30%" y="-30%" width="160%" height="160%">
      <feGaussianBlur stdDeviation="10" result="blur"/>
      <feMerge>
        <feMergeNode in="blur"/>
        <feMergeNode in="SourceGraphic"/>
      </feMerge>
    </filter>
    <pattern id="grid" width="40" height="40" patternUnits="userSpaceOnUse">
      <path d="M 40 0 L 0 0 0 40" fill="none" stroke="#94A3B8" stroke-opacity="0.08" stroke-width="1"/>
    </pattern>
  </defs>
  <rect width="1280" height="420" rx="34" fill="#020617"/>
  <rect width="1280" height="420" rx="34" fill="url(#g1)"/>
  <rect width="1280" height="420" rx="34" fill="url(#grid)"/>
  <path d="M0 331 C188 244 275 385 447 291 C618 198 672 129 844 173 C1017 217 1097 89 1280 135" stroke="url(#line)" stroke-opacity="0.85" stroke-width="3" filter="url(#glow)"/>
  <path d="M0 365 C219 282 358 375 542 316 C714 261 787 189 934 230 C1082 272 1145 198 1280 220" stroke="#22D3EE" stroke-opacity="0.28" stroke-width="2"/>
  <circle cx="1050" cy="105" r="86" fill="#7C3AED" opacity="0.18" filter="url(#glow)"/>
  <circle cx="187" cy="335" r="76" fill="#10B981" opacity="0.14" filter="url(#glow)"/>
  <g transform="translate(70 62)">
    <rect x="0" y="0" width="560" height="250" rx="22" fill="#020617" fill-opacity="0.72" stroke="#38BDF8" stroke-opacity="0.28"/>
    <circle cx="34" cy="34" r="7" fill="#EF4444"/>
    <circle cx="58" cy="34" r="7" fill="#F59E0B"/>
    <circle cx="82" cy="34" r="7" fill="#22C55E"/>
    <text x="32" y="88" fill="#94A3B8" font-family="JetBrains Mono, Fira Code, monospace" font-size="22">Last login: now from Indonesia</text>
    <text x="32" y="132" fill="#22D3EE" font-family="JetBrains Mono, Fira Code, monospace" font-size="26">0x357@github:~$</text>
    <text x="270" y="132" fill="#F8FAFC" font-family="JetBrains Mono, Fira Code, monospace" font-size="26">ship --with-taste</text>
    <text x="32" y="178" fill="#A78BFA" font-family="JetBrains Mono, Fira Code, monospace" font-size="24">AI Agents • Web3 • Automation</text>
    <text x="32" y="220" fill="#10B981" font-family="JetBrains Mono, Fira Code, monospace" font-size="22">Status: building high-leverage systems</text>
  </g>
  <g transform="translate(720 86)">
    <text x="0" y="0" fill="#F8FAFC" font-family="Inter, Segoe UI, Arial, sans-serif" font-size="66" font-weight="800">0x357</text>
    <text x="0" y="64" fill="#CBD5E1" font-family="Inter, Segoe UI, Arial, sans-serif" font-size="32" font-weight="600">Web3 × AI Automation</text>
    <text x="0" y="114" fill="#94A3B8" font-family="Inter, Segoe UI, Arial, sans-serif" font-size="24">building agents, tooling, and digital products</text>
    <rect x="0" y="154" width="138" height="42" rx="21" fill="#7C3AED" fill-opacity="0.25" stroke="#A78BFA" stroke-opacity="0.55"/>
    <text x="24" y="182" fill="#EDE9FE" font-family="Inter, Segoe UI, Arial, sans-serif" font-size="17" font-weight="700">AI Agents</text>
    <rect x="154" y="154" width="104" height="42" rx="21" fill="#0EA5E9" fill-opacity="0.22" stroke="#38BDF8" stroke-opacity="0.55"/>
    <text x="184" y="182" fill="#E0F2FE" font-family="Inter, Segoe UI, Arial, sans-serif" font-size="17" font-weight="700">Web3</text>
    <rect x="274" y="154" width="146" height="42" rx="21" fill="#10B981" fill-opacity="0.18" stroke="#34D399" stroke-opacity="0.55"/>
    <text x="302" y="182" fill="#D1FAE5" font-family="Inter, Segoe UI, Arial, sans-serif" font-size="17" font-weight="700">Automation</text>
  </g>
</svg>
